<svg xmlns="http://www.w3.org/2000/svg" fill="none" viewBox="0 0 512 512"><circle cx="256" cy="256" r="256" fill="#000"/><path stroke="#fff" stroke-linecap="round" stroke-linejoin="round" stroke-width="10" d="m456 163.692-50-26.933m50 26.933v46.154m0-46.154-50 26.934M56 163.692l50-26.933m-50 26.933 50 26.934m-50-26.934v46.154m200 61.539 50-26.934m-50 26.934-50-26.934m50 26.934v46.153M256 456l50-26.933M256 456v-46.154M256 456l-50-26.933m0-346.154L256 56l50 26.933m150 219.221v46.154l-50 26.933m-300 0-50-26.933v-46.154"/></svg>