<svg width="400" height="120" viewBox="0 0 400 120" fill="none" xmlns="http://www.w3.org/2000/svg">
<g filter="url(#filter0_d_97_32)">
<path d="M148.88 73V70H152.8V48H148.88V45H162.92C164.547 45 165.987 45.2933 167.24 45.88C168.52 46.4667 169.507 47.2933 170.2 48.36C170.92 49.4 171.28 50.6267 171.28 52.04V52.36C171.28 53.6667 171.027 54.7467 170.52 55.6C170.013 56.4267 169.413 57.08 168.72 57.56C168.027 58.0133 167.347 58.3467 166.68 58.56V59.12C167.347 59.28 168.04 59.6 168.76 60.08C169.48 60.5333 170.08 61.1867 170.56 62.04C171.067 62.8933 171.32 63.9733 171.32 65.28V65.68C171.32 67.2 170.947 68.52 170.2 69.64C169.48 70.7333 168.48 71.5733 167.2 72.16C165.947 72.72 164.507 73 162.88 73H148.88ZM156.16 69.96H162.52C164.28 69.96 165.627 69.5467 166.56 68.72C167.493 67.8933 167.96 66.7733 167.96 65.36V65C167.96 63.5867 167.493 62.4667 166.56 61.64C165.627 60.8133 164.28 60.4 162.52 60.4H156.16V69.96ZM156.16 57.36H162.64C164.24 57.36 165.52 56.96 166.48 56.16C167.44 55.3333 167.92 54.2533 167.92 52.92V52.52C167.92 51.16 167.44 50.08 166.48 49.28C165.547 48.4533 164.267 48.04 162.64 48.04H156.16V57.36ZM174.25 73L182.89 45H188.81L197.45 73H193.97L191.81 65.92H179.89L177.73 73H174.25ZM180.73 62.88H190.93L186.13 47.04H185.57L180.73 62.88ZM211.375 73.56C208.041 73.56 205.388 72.6 203.415 70.68C201.441 68.7333 200.455 65.9067 200.455 62.2V55.8C200.455 52.0933 201.441 49.28 203.415 47.36C205.388 45.4133 208.041 44.44 211.375 44.44C214.681 44.44 217.215 45.36 218.975 47.2C220.761 49.04 221.655 51.56 221.655 54.76V54.96H218.335V54.64C218.335 52.5333 217.761 50.8133 216.615 49.48C215.495 48.12 213.748 47.44 211.375 47.44C209.001 47.44 207.148 48.1733 205.815 49.64C204.481 51.08 203.815 53.1067 203.815 55.72V62.28C203.815 64.8933 204.481 66.9333 205.815 68.4C207.148 69.84 209.001 70.56 211.375 70.56C213.748 70.56 215.495 69.8933 216.615 68.56C217.761 67.2 218.335 65.4667 218.335 63.36V62.72H221.655V63.24C221.655 66.44 220.761 68.96 218.975 70.8C217.215 72.64 214.681 73.56 211.375 73.56ZM226.919 73V45H230.279V57.2H230.839L242.679 45H247.159L233.519 58.84L247.639 73H243.039L230.839 60.56H230.279V73H226.919ZM249.133 73L257.773 45H263.693L272.333 73H268.853L266.693 65.92H254.773L252.613 73H249.133ZM255.613 62.88H265.813L261.013 47.04H260.453L255.613 62.88ZM276.528 73V45H287.848C289.581 45 291.101 45.3067 292.408 45.92C293.741 46.5067 294.781 47.36 295.528 48.48C296.275 49.5733 296.648 50.8933 296.648 52.44V52.88C296.648 54.72 296.208 56.1733 295.328 57.24C294.448 58.3067 293.408 59.0267 292.208 59.4V59.96C293.168 59.9867 293.955 60.3067 294.568 60.92C295.208 61.5067 295.528 62.4 295.528 63.6V73H292.208V64C292.208 63.2 291.981 62.5867 291.528 62.16C291.101 61.7333 290.448 61.52 289.568 61.52H279.888V73H276.528ZM279.888 58.48H287.528C289.368 58.48 290.781 58.04 291.768 57.16C292.781 56.2533 293.288 55 293.288 53.4V53.12C293.288 51.52 292.795 50.28 291.808 49.4C290.821 48.4933 289.395 48.04 287.528 48.04H279.888V58.48ZM311.883 73.56C308.549 73.56 305.896 72.6 303.923 70.68C301.949 68.7333 300.963 65.9067 300.963 62.2V55.8C300.963 52.0933 301.949 49.28 303.923 47.36C305.896 45.4133 308.549 44.44 311.883 44.44C315.189 44.44 317.723 45.36 319.483 47.2C321.269 49.04 322.163 51.56 322.163 54.76V54.96H318.843V54.64C318.843 52.5333 318.269 50.8133 317.123 49.48C316.003 48.12 314.256 47.44 311.883 47.44C309.509 47.44 307.656 48.1733 306.323 49.64C304.989 51.08 304.323 53.1067 304.323 55.72V62.28C304.323 64.8933 304.989 66.9333 306.323 68.4C307.656 69.84 309.509 70.56 311.883 70.56C314.256 70.56 316.003 69.8933 317.123 68.56C318.269 67.2 318.843 65.4667 318.843 63.36V62.72H322.163V63.24C322.163 66.44 321.269 68.96 319.483 70.8C317.723 72.64 315.189 73.56 311.883 73.56ZM327.427 73V45H330.787V57.44H343.907V45H347.267V73H343.907V60.48H330.787V73H327.427Z" fill="black"/>
</g>
<path d="M117.5 41.25L108.125 35.7792M117.5 41.25V50.625M117.5 41.25L108.125 46.7208M42.5 41.25L51.875 35.7792M42.5 41.25L51.875 46.7208M42.5 41.25V50.625M80 63.125L89.375 57.6542M80 63.125L70.625 57.6542M80 63.125V72.5M80 100.625L89.375 95.1542M80 100.625V91.25M80 100.625L70.625 95.1542M70.625 24.8417L80 19.375L89.375 24.8458M117.5 69.375V78.75L108.125 84.2208M51.875 84.2208L42.5 78.75V69.375" stroke="black" stroke-width="3" stroke-linecap="round" stroke-linejoin="round"/>
<defs>
<filter id="filter0_d_97_32" x="144.88" y="44.44" width="206.387" height="37.12" filterUnits="userSpaceOnUse" color-interpolation-filters="sRGB">
<feFlood flood-opacity="0" result="BackgroundImageFix"/>
<feColorMatrix in="SourceAlpha" type="matrix" values="0 0 0 0 0 0 0 0 0 0 0 0 0 0 0 0 0 0 127 0" result="hardAlpha"/>
<feOffset dy="4"/>
<feGaussianBlur stdDeviation="2"/>
<feComposite in2="hardAlpha" operator="out"/>
<feColorMatrix type="matrix" values="0 0 0 0 0 0 0 0 0 0 0 0 0 0 0 0 0 0 0.25 0"/>
<feBlend mode="normal" in2="BackgroundImageFix" result="effect1_dropShadow_97_32"/>
<feBlend mode="normal" in="SourceGraphic" in2="effect1_dropShadow_97_32" result="shape"/>
</filter>
</defs>
</svg>
